<svg width="260" height="249" viewBox="0 0 260 249" fill="none" xmlns="http://www.w3.org/2000/svg">
<g clip-path="url(#clip0_29424_1913)">
<path d="M113.593 90.0402C113.593 91.068 112.762 91.8931 111.728 91.8931C110.694 91.8931 109.864 91.068 109.864 90.0402C109.864 89.0124 110.694 88.1873 111.728 88.1873C112.748 88.1873 113.593 89.0269 113.593 90.0402Z" fill="#B7B7B7"/>
<path d="M112.791 90.0401C112.791 90.6192 112.311 91.0969 111.728 91.0969C111.146 91.0969 110.665 90.6192 110.665 90.0401C110.665 89.4611 111.146 88.9834 111.728 88.9834C112.311 88.9834 112.791 89.4611 112.791 90.0401Z" fill="#EDEDED"/>
<path opacity="0.06" d="M129.993 249C201.786 249 259.985 244.023 259.985 237.883C259.985 231.742 201.786 226.765 129.993 226.765C58.1997 226.765 0 231.742 0 237.883C0 244.023 58.1997 249 129.993 249Z" fill="black"/>
<path d="M90.8555 235.276H82V-1L90.8555 7.12098V235.276Z" fill="#E2E2E2"/>
<path d="M90.6953 8.1343L82 -0.667053H192.01L183.839 8.1343H90.6953Z" fill="#EAEAEA"/>
<path d="M183.329 235.276H192.184V-1L183.329 7.12098V235.276Z" fill="#D8D8D8"/>
<path d="M90.8555 178.762V234.943H183.154V84.1038C155.087 117.659 123.03 147.494 90.8555 178.762Z" fill="#EDEDED"/>
<path d="M183.154 84.1038V8.13428H90.8555V178.747C123.03 147.494 155.087 117.659 183.154 84.1038Z" fill="#F2F2F2"/>
<path d="M90.8555 234.928V8.13428H183.154V234.928" stroke="#808080" stroke-miterlimit="10"/>
<path d="M100.306 132.329C101.739 130.904 101.739 128.595 100.306 127.17C98.8727 125.745 96.5488 125.745 95.1154 127.17C93.682 128.595 93.6821 130.904 95.1154 132.329C96.5488 133.753 98.8727 133.753 100.306 132.329Z" fill="#666666"/>
<path d="M105.858 128.415C105.668 128.415 105.479 128.415 105.275 128.415C100.774 128.415 97.1331 129.095 97.1331 129.949C97.1331 130.6 99.2596 131.15 102.26 131.368C103.454 130.383 104.634 129.355 105.858 128.415Z" fill="#808080"/>
<path d="M108.45 128.53C107.401 129.602 106.178 130.528 104.998 131.469C105.1 131.469 105.188 131.469 105.289 131.469C109.79 131.469 113.431 130.789 113.431 129.935C113.417 129.312 111.363 128.762 108.45 128.53Z" fill="#808080"/>
<path d="M108.45 128.53C107.649 128.472 106.775 128.429 105.872 128.415C104.634 129.355 103.469 130.383 102.275 131.368C103.119 131.426 104.037 131.469 104.998 131.469C106.178 130.528 107.387 129.616 108.45 128.53Z" fill="#D1D1D1"/>
<path d="M135.803 44.8452C135.803 44.8452 135.628 44.7583 135.264 44.5991C134.9 44.4254 134.609 44.1793 134.405 43.8608C134.186 43.5423 134.055 43.1515 134.026 42.7027H135.381C135.41 42.9054 135.468 43.0646 135.57 43.1949C135.658 43.3252 135.789 43.4265 135.934 43.4844C136.08 43.5568 136.255 43.5858 136.444 43.5858C136.779 43.5858 137.027 43.4989 137.216 43.3252C137.391 43.1515 137.493 42.8909 137.493 42.5724V42.3553C137.493 42.0079 137.405 41.7328 137.245 41.5447C137.085 41.3565 136.852 41.2551 136.561 41.2551H135.934V39.9957H136.561C136.808 39.9957 137.012 39.9089 137.143 39.7496C137.274 39.5759 137.347 39.3443 137.347 39.0548V38.8666C137.347 38.5916 137.274 38.3744 137.129 38.2152C136.983 38.0704 136.764 37.9836 136.502 37.9836C136.342 37.9836 136.182 38.0125 136.051 38.0849C135.92 38.1573 135.803 38.2586 135.716 38.4034C135.628 38.5481 135.556 38.7219 135.512 38.9245H134.157C134.216 38.4613 134.347 38.0704 134.565 37.7375C134.784 37.4045 135.046 37.1585 135.381 36.9847C135.716 36.811 136.094 36.7242 136.517 36.7242C137.216 36.7242 137.755 36.9124 138.148 37.2743C138.527 37.6362 138.731 38.1428 138.731 38.8087V38.9969C138.731 39.3877 138.629 39.7207 138.425 39.9957C138.221 40.2853 137.93 40.4879 137.566 40.6327C137.973 40.7195 138.294 40.9367 138.527 41.2551C138.76 41.5736 138.862 41.9934 138.862 42.5001V42.6883C138.862 43.1515 138.774 43.5568 138.585 43.8753C138.396 44.2082 138.134 44.4543 137.784 44.628C137.434 44.8017 137.012 44.8886 136.517 44.8886C136.036 44.8452 135.803 44.8452 135.803 44.8452Z" fill="#B7B7B7"/>
<path d="M141.221 44.5701C140.872 44.3819 140.624 44.1069 140.435 43.745C140.26 43.3831 140.158 42.9488 140.158 42.4422C140.158 42.1527 140.187 41.8342 140.26 41.5157C140.333 41.1973 140.435 40.8643 140.566 40.5458C140.595 40.4879 140.61 40.43 140.639 40.3866C140.668 40.3287 140.682 40.2853 140.712 40.2274L142.401 36.7821H143.858L141.862 40.763L141.673 40.5603C141.76 40.3866 141.906 40.2563 142.081 40.155C142.255 40.0537 142.459 40.0102 142.692 40.0102C143.115 40.0102 143.493 40.0971 143.799 40.2853C144.105 40.4735 144.338 40.7485 144.498 41.0959C144.659 41.4578 144.746 41.8776 144.746 42.3843C144.746 42.8909 144.659 43.3397 144.469 43.7016C144.295 44.0635 144.032 44.353 143.683 44.5412C143.333 44.7294 142.925 44.8307 142.445 44.8307C141.979 44.8452 141.556 44.7583 141.221 44.5701ZM143.173 43.3107C143.348 43.1225 143.421 42.862 143.421 42.5146C143.421 42.1237 143.333 41.8342 143.158 41.6171C142.984 41.3999 142.736 41.2986 142.416 41.2986C142.11 41.2986 141.877 41.3999 141.717 41.6171C141.556 41.8342 141.469 42.1237 141.469 42.5146C141.469 42.862 141.556 43.1225 141.717 43.3107C141.891 43.4989 142.124 43.5858 142.43 43.5858C142.765 43.5858 143.013 43.4989 143.173 43.3107Z" fill="#B7B7B7"/>
<path d="M141.096 50.0019C141.244 49.0944 140.624 48.2393 139.711 48.092C138.798 47.9447 137.938 48.561 137.79 49.4686C137.641 50.3761 138.261 51.2312 139.175 51.3785C140.088 51.5258 140.948 50.9095 141.096 50.0019Z" fill="#666666"/>
<path d="M140.435 48.9129C140.187 48.6234 139.838 48.4352 139.43 48.4352C138.702 48.4352 138.119 49.0142 138.119 49.738C138.119 50.0999 138.279 50.4329 138.527 50.6789C139.168 50.0854 139.823 49.5353 140.435 48.9129Z" fill="#8C8C8C"/>
<path d="M138.527 50.6645C138.76 50.8961 139.08 51.0264 139.43 51.0264C140.158 51.0264 140.741 50.4474 140.741 49.7236C140.741 49.4051 140.624 49.1301 140.435 48.8984C139.823 49.5354 139.168 50.0855 138.527 50.6645Z" fill="#808080"/>
<path d="M204.583 203.146L199.748 197.022C195.451 191.579 189.086 187.656 182.27 186.252L182.605 184.674C188.489 185.89 194.068 188.901 198.393 193.114C197.825 190.349 197.913 187.468 197.986 184.645C198.102 180.433 198.219 176.452 196.34 172.934L197.767 172.182C199.85 176.076 199.733 180.462 199.602 184.689C199.486 188.8 199.384 192.679 201.117 196.168L204.583 203.146Z" fill="#70B28B"/>
<path d="M199.835 179.941C205.501 179.521 211.546 181.49 216.702 179.087C218.435 178.276 219.95 177.002 221.027 175.424C223.751 171.443 223.46 166.218 223.052 161.412C223.008 160.832 222.95 160.225 222.688 159.703C222.426 159.182 221.872 158.762 221.29 158.806C220.707 158.849 220.255 159.327 219.877 159.776C218.231 161.687 216.541 163.612 214.517 165.132C212.274 166.811 209.536 167.969 206.71 167.738C206.127 167.694 205.574 167.332 205.385 166.782C205.035 165.769 206.069 165.103 206.958 164.828C209.55 164.003 212.507 164.22 214.764 162.729C216.439 161.629 217.459 159.732 217.823 157.764C218.187 155.795 217.94 153.783 217.488 151.828C217.182 150.511 216.76 149.179 215.609 148.311C215.274 148.065 214.881 147.891 214.473 147.833C212.769 147.587 211.851 149.02 211.007 150.222C209.157 152.871 206.404 155.259 203.156 155.332C202.646 154.724 202.836 153.754 203.346 153.16C203.855 152.552 204.613 152.219 205.312 151.843C208.341 150.251 211.24 147.182 209.419 143.534C209.157 142.998 208.807 142.52 208.4 142.086C206.87 140.465 204.875 139.611 202.967 138.612C202.209 138.221 201.336 138.8 201.365 139.64C201.452 142.289 201.19 144.938 200.549 147.515C200.447 147.949 200.229 148.369 199.908 148.687C198.714 149.874 197.432 148.846 197.199 147.717C197.039 146.921 197.286 146.111 197.563 145.343C198.262 143.447 199.238 141.637 199.646 139.669C200.054 137.686 199.806 135.427 198.379 133.994C197.083 132.706 195.16 132.358 193.383 131.91C191.606 131.461 189.698 130.665 188.984 129H188.97C188.999 130.824 187.557 132.301 186.115 133.415C184.673 134.53 183.042 135.615 182.387 137.309C181.658 139.191 182.343 141.362 183.523 143.013C184.702 144.663 186.319 145.937 187.732 147.384C188.3 147.963 188.853 148.615 189.028 149.411C189.276 150.526 188.504 151.988 186.945 151.38C186.523 151.221 186.173 150.917 185.897 150.555C184.28 148.456 182.955 146.125 181.964 143.664C181.658 142.882 180.624 142.709 180.085 143.36C178.731 145.025 177.245 146.603 176.502 148.702C176.298 149.252 176.182 149.845 176.153 150.424C175.963 154.492 179.852 156.157 183.275 156.403C184.076 156.461 184.892 156.475 185.62 156.823C186.334 157.17 186.902 157.981 186.669 158.733C183.668 159.964 180.187 158.878 177.42 157.185C176.167 156.417 174.74 155.476 173.283 156.374C172.934 156.591 172.643 156.91 172.439 157.271C171.725 158.516 171.885 159.921 172.133 161.238C172.511 163.192 173.094 165.146 174.216 166.811C175.337 168.461 177.041 169.793 179.022 170.141C181.702 170.589 184.324 169.229 187.018 168.939C187.95 168.838 189.159 169.04 189.247 170.112C189.29 170.691 188.941 171.241 188.416 171.516C185.926 172.848 182.94 172.876 180.216 172.24C177.74 171.66 175.439 170.575 173.152 169.475C172.628 169.229 172.031 168.968 171.477 169.156C170.924 169.344 170.589 169.952 170.56 170.546C170.531 171.125 170.72 171.704 170.909 172.254C172.482 176.814 174.332 181.707 178.425 184.283C180.056 185.297 181.95 185.876 183.872 185.919C189.552 186.05 194.301 181.837 199.661 179.97L199.835 179.941Z" fill="#18AC00"/>
<path d="M217.021 204.082C217.25 202.852 216.306 201.717 215.055 201.717H193.742C192.468 201.717 191.519 202.891 191.786 204.136L198.204 234.047C198.402 234.969 199.217 235.627 200.159 235.627H209.493C210.456 235.627 211.283 234.94 211.459 233.993L217.021 204.082Z" fill="#D7B99D"/>
<path d="M194.126 189.886C196.573 186.498 200.578 184.023 201.656 179.984C202.02 178.623 202.005 177.161 201.627 175.801C200.651 172.37 197.534 170.054 194.606 167.998C194.257 167.752 193.878 167.491 193.456 167.39C193.033 167.289 192.524 167.39 192.276 167.752C192.028 168.099 192.087 168.577 192.159 169.011C192.465 170.85 192.757 172.703 192.669 174.57C192.553 176.626 191.926 178.725 190.441 180.201C190.135 180.505 189.669 180.65 189.261 180.491C188.518 180.201 188.635 179.318 188.897 178.667C189.654 176.828 191.184 175.25 191.417 173.267C191.591 171.805 190.994 170.314 190.048 169.185C189.101 168.056 187.834 167.231 186.508 166.565C185.62 166.116 184.659 165.711 183.61 165.957C183.304 166.029 183.027 166.16 182.794 166.377C181.847 167.216 182.226 168.418 182.517 169.46C183.144 171.762 183.202 174.44 181.702 176.307C181.119 176.307 180.653 175.743 180.551 175.164C180.449 174.585 180.609 174.006 180.741 173.427C181.279 170.966 180.901 167.882 177.959 167.158C177.536 167.057 177.085 167.028 176.648 167.043C174.987 167.129 173.56 167.853 172.089 168.461C171.506 168.693 171.419 169.46 171.914 169.851C173.473 171.052 174.856 172.471 176.021 174.049C176.225 174.324 176.356 174.628 176.386 174.961C176.488 176.191 175.293 176.437 174.55 176.032C174.026 175.743 173.677 175.222 173.371 174.7C172.628 173.398 172.06 171.993 171.128 170.835C170.195 169.677 168.797 168.722 167.297 168.852C165.957 168.968 164.836 169.894 163.743 170.676C162.651 171.458 161.282 172.167 160 171.762V171.776C161.049 172.63 161.209 174.136 161.165 175.482C161.122 176.828 160.961 178.261 161.617 179.434C162.345 180.737 163.903 181.388 165.404 181.504C166.904 181.62 168.389 181.316 169.89 181.215C170.487 181.171 171.128 181.171 171.667 181.446C172.424 181.837 172.875 182.966 171.798 183.56C171.506 183.719 171.171 183.777 170.836 183.762C168.87 183.675 166.918 183.314 165.039 182.706C164.442 182.503 163.86 183.01 163.976 183.618C164.282 185.166 164.486 186.759 165.316 188.177C165.535 188.554 165.811 188.901 166.132 189.205C168.36 191.246 171.157 189.842 172.919 188.033C173.327 187.613 173.735 187.15 174.274 186.918C174.813 186.686 175.541 186.744 175.861 187.237C175.133 189.509 172.861 190.957 170.589 191.71C169.555 192.057 168.346 192.404 168.156 193.649C168.113 193.953 168.156 194.272 168.258 194.547C168.622 195.546 169.496 196.11 170.37 196.602C171.667 197.326 173.065 197.92 174.536 198.079C176.007 198.238 177.58 197.905 178.716 196.95C180.245 195.662 180.711 193.534 181.833 191.883C182.226 191.304 182.911 190.725 183.566 191.174C183.93 191.42 184.061 191.883 183.974 192.303C183.552 194.344 182.153 196.038 180.493 197.268C178.993 198.383 177.274 199.165 175.555 199.932C175.162 200.106 174.725 200.323 174.58 200.728C174.419 201.133 174.609 201.597 174.929 201.901C175.25 202.205 175.657 202.364 176.065 202.523C179.415 203.797 183.071 205.1 186.494 204C187.848 203.565 189.072 202.769 190.018 201.712C192.8 198.586 192.655 193.91 194.126 190.001V189.886Z" fill="#148C00"/>
<path d="M114.257 195.496L45.2102 197.056L46.1261 237.085L115.173 235.524L114.257 195.496Z" fill="#CFB495"/>
<path d="M114.277 195.512L45.2098 197.075L63.518 191.704L98.0371 190.923L114.277 195.512Z" fill="#DDCDB4"/>
<path d="M108.626 91.4877C106.834 89.6637 104.198 90.5902 103.106 90.8218C102.45 91.9365 102.188 94.6869 102.377 94.7592C102.654 94.8606 103.805 94.9909 105.232 94.8027C106.834 94.5855 110.024 92.9063 108.626 91.4877Z" fill="#F0995A"/>
<path d="M46.4333 69.8752C46.04 69.687 44.234 73.7547 43.8407 73.5955C40.3014 77.779 37.7088 82.6284 35.5386 87.7674C39.0779 90.5178 42.5298 92.7615 48.5015 95.1211C52.8273 96.8293 61.9304 101.056 63.6346 101.737C64.3191 96.6845 65.0037 91.6324 65.4261 86.5659L46.4333 69.8752Z" fill="black"/>
<path d="M104.111 90.7205C81.768 93.8472 76.3352 91.864 72.8979 90.8363C72.8251 90.8073 72.0677 90.5323 71.9512 90.4744C70.3781 89.7506 65.426 86.5514 65.426 86.5514C65.0037 91.618 64.6104 93.3695 63.9258 98.4216C64.0715 98.4795 71.9803 101.013 83.4721 99.3626C93.9734 97.8571 100.571 95.8304 105.625 94.4118C105.582 92.776 105.494 92.6602 105.451 91.0244C105.436 90.4309 104.752 90.6336 104.111 90.7205Z" fill="#F0995A"/>
<path d="M42.2676 48.3785C42.355 48.089 42.4716 47.7705 42.7483 47.5968C43.1707 47.3362 43.9718 44.6292 44.467 44.8174C44.9622 44.9911 48.1228 48.7404 48.283 48.943C48.5015 49.2181 48.2247 51.5487 48.2102 51.8816C48.0645 54.965 47.9917 57.8023 48.2684 60.8857C48.3413 61.7687 46.9285 62.7965 47.1906 63.665C47.4819 64.6494 49.4045 67.6604 47.2052 67.3853C45.3409 67.1537 44.0591 64.0848 43.462 62.8689C41.554 58.9604 41.0733 52.4317 42.2676 48.3785Z" fill="black"/>
<path d="M59.9059 51.4329C59.8622 51.1723 59.8185 50.8828 59.6146 50.6946C59.3233 50.4196 58.8572 50.492 58.464 50.5933C58.0707 50.6946 57.692 50.8249 57.3133 50.9842C57.1094 51.0565 56.9055 51.1579 56.7744 51.3171C56.5851 51.5342 55.784 52.1422 55.7694 52.4318C55.5947 55.1387 55.2597 57.8313 54.7645 60.5093C54.6188 61.2765 54.4732 62.0293 54.1964 62.7531C53.876 63.5782 52.1573 66.0391 53.8469 66.0101C55.2742 65.9957 56.5268 63.4334 57.0949 62.4201C58.8718 59.2065 60.4302 55.0953 59.9059 51.4329Z" fill="#42210B"/>
<path d="M54.444 74.551C54.4149 75.3182 42.2822 70.6714 42.2822 70.6714L45.5885 58.4248C45.5885 58.4248 45.7487 59.0038 45.938 58.9025C46.1711 58.7722 46.4915 58.8301 46.7683 58.888C50.1036 59.5394 53.6721 60.4659 54.7208 62.7386C54.8518 62.9992 54.5168 72.3361 54.444 74.551Z" fill="#F0995A"/>
<path d="M60.8818 65.6771C62.5131 63.7084 63.2996 61.1462 63.5035 58.6129C63.7074 56.0651 64.0715 53.1121 63.6346 50.5932C63.3287 48.8272 60.2701 45.0345 55.2306 45.3095C47.2198 45.7438 48.5598 49.4207 47.8898 51.8961C47.4383 53.5898 47.7004 55.7611 47.9189 57.5127C48.05 58.5695 48.1811 59.6407 48.487 60.654C49.39 63.6071 51.8369 66.1114 54.4295 67.6893C56.9638 69.2092 59.0612 67.8485 60.8818 65.6771Z" fill="#FFAC73"/>
<path d="M49.0307 58.3342C49.075 57.0958 48.1985 56.0596 47.073 56.0198C45.9475 55.98 44.9992 56.9517 44.9549 58.1902C44.9106 59.4287 45.7871 60.4649 46.9126 60.5046C48.0381 60.5444 48.9864 59.5727 49.0307 58.3342Z" fill="#FFAC73"/>
<path d="M57.5027 217.443C56.4831 209.959 56.8618 202.503 57.4298 195.569C59.134 188.722 62.9063 177.996 61.9596 170.381L61.7994 142.602C61.7557 141.864 56.8764 118.891 56.1627 118.963C53.9779 119.368 46.9867 117.906 41.5831 123.856C35.0871 131.007 36.5291 133.207 36.5582 135.118C36.8204 136.696 37.2719 139.099 37.9273 142.023C40.2286 152.113 42.7046 157.382 44.03 162C44.8166 164.736 47.1907 176.621 46.3459 182.614C46.2876 183.062 46.2585 183.554 46.2585 184.076C45.5448 188.013 44.9476 192.312 44.9039 197.075C44.7729 212.825 48.6908 225.607 52.1573 234.017C55.4053 235.364 56.7307 235.48 59.9787 236.826C58.5077 230.616 58.5077 224.782 57.5027 217.443Z" fill="#23477C"/>
<path d="M61.2022 139.128C61.2604 138.39 56.6433 111.175 55.9296 111.16C53.7158 111.276 46.9285 111.928 40.7966 117.139C33.4413 123.407 33.0917 131.528 32.8732 133.424C32.9315 135.017 30.6885 137.637 30.8196 143.89C31.0526 154.226 35.3347 156.499 36.0484 161.247C36.4708 164.07 37.301 176.143 35.6988 181.977C35.5823 182.425 35.4804 182.903 35.4221 183.424C34.2132 187.231 33.0626 191.429 32.4071 196.148C30.2515 211.754 32.4945 224.927 34.8541 233.713C37.9127 235.465 39.1944 235.74 42.2531 237.492C41.5831 231.137 42.3259 225.346 42.2822 217.949C42.2385 210.624 43.4911 203.488 44.8894 196.858C47.8752 190.242 55.3762 179.327 55.4199 171.409L61.2022 139.128Z" fill="#305591"/>
<path d="M57.2987 81.1808C56.9492 79.3569 56.9783 79.4582 56.6579 77.446C56.6579 77.0697 56.3083 75.5787 55.784 74.6956C55.4053 74.0732 54.881 73.552 54.2255 73.1757C54.2255 73.1757 43.36 66.2996 43.2435 66.401C42.9376 66.7049 42.4279 67.2406 41.8016 67.9209C48.7928 70.3963 53.5701 75.3905 57.2987 81.1808Z" fill="#1B1D21"/>
<path d="M60.5613 112.507C60.6924 109.641 60.9255 107.324 61.0711 105.602C61.5954 99.6087 59.3233 91.8207 57.3133 81.1664C53.5701 75.3905 48.8074 70.3819 41.8162 67.9065C39.3547 70.5556 35.0726 75.405 34.1258 77.3014C30.3535 84.9157 30.4846 99.5798 32.48 112.072C35.4804 130.746 30.135 136.378 30.7322 144.889C30.7322 144.889 61.0711 145.121 62.2363 143.702C61.3624 140.329 61.1585 128.343 60.6924 122.09C60.6342 121.294 60.5905 115.489 60.5613 112.507Z" fill="#1B1D21"/>
<path d="M32.0466 133.457L29.0254 156.467L63.139 160.891L66.1602 137.881L32.0466 133.457Z" fill="#979797"/>
<path d="M33.1098 132.337L30.0886 155.347L64.2021 159.772L67.2233 136.762L33.1098 132.337Z" fill="#EAEAEA"/>
<path d="M30.7176 137.999L28.0668 158.164C28.0085 158.656 28.3581 159.105 28.8533 159.177L63.6782 163.693C64.1734 163.751 64.6249 163.404 64.6978 162.912L67.3923 142.863C67.4651 142.356 67.101 141.893 66.5912 141.835C63.518 141.459 53.8177 140.286 53.6429 140.257L31.5332 137.376C31.1254 137.333 30.7759 137.608 30.7176 137.999Z" fill="#333333"/>
<path d="M54.1673 155.182C55.7112 152.46 53.4245 149.724 52.6816 148.537C50.9775 148.175 47.4091 148.827 47.3945 149.058C47.38 149.42 47.7004 150.795 48.5452 152.388C49.4919 154.183 52.9729 157.295 54.1673 155.182Z" fill="#FFAC73"/>
<path d="M42.7046 117.631C42.7046 117.559 42.9376 115.547 42.8794 115.431L45.37 100.868C40.0392 100.332 36.4125 99.3336 31.6061 95.7436C31.5769 95.6857 31.5332 95.6133 31.4895 95.5554C31.4604 95.9607 31.4167 96.3806 31.3876 96.8004C31.038 101.823 29.465 115.72 29.5524 116.053C29.7272 118.094 34.723 129.024 38.5827 135.769C43.8261 144.933 45.5157 146.366 48.4141 150.723C49.9726 150.187 51.0358 150.014 52.5943 149.478C53.1769 149.275 52.7545 148.682 52.4632 148.103C45.4574 133.526 42.7629 121.192 42.7046 117.631Z" fill="#FFAC73"/>
<path d="M47.0158 100.969L50.4532 87.0871C51.3562 81.0072 49.0258 75.8683 41.6705 75.2313C41.6705 75.2313 37.0971 75.5353 35.2619 80.2255C33.3976 84.9736 32.0576 88.911 31.475 95.541C31.5187 95.5989 31.5624 95.6713 31.5915 95.7292C36.4125 99.3192 41.685 100.434 47.0158 100.969Z" fill="#1B1D21"/>
<path d="M67.8875 51.071C68.2225 51.071 68.7469 51.0276 69.344 50.7959C69.7664 50.6367 70.2034 50.4485 70.4947 50.0142L70.5092 49.9998C71.0045 49.2325 70.5675 48.1758 69.7082 47.8863C68.0041 47.3217 64.523 46.4821 63.8093 45.9899C63.6346 45.1359 62.6587 41.7485 61.5518 40.3733C59.8331 38.2309 57.5173 37.5794 56.0171 37.1596C54.9392 36.8556 51.6039 35.9581 47.8169 37.3044C46.7537 37.6808 44.6563 38.4335 43.0833 40.4312C41.8744 41.9801 41.4375 43.6883 41.2336 44.5134C41.117 44.9477 40.9277 45.8452 40.8694 47.0177C40.7821 48.7983 41.0879 50.2893 41.4083 51.346C44.5398 51.4329 67.771 50.9552 67.8875 51.071Z" fill="#1B1D21"/>
<path d="M111.364 90.8074L105.057 91.618C104.81 91.647 106.951 91.2561 106.907 91.01L106.864 90.7495C106.834 90.5034 104.635 90.5179 104.883 90.4889L111.189 89.6783C111.437 89.6493 111.655 89.8085 111.699 90.0546L111.743 90.3152C111.772 90.5468 111.597 90.7784 111.364 90.8074Z" fill="#F0995A"/>
<path d="M88.4824 196.062V214.808L93.216 211.753L97.7166 215.04L97.6875 195.917L88.4824 196.062Z" fill="#EFDFCA"/>
<g clip-path="url(#clip1_29424_1913)">
<path d="M58.9147 231.56C59.8821 232.127 61.6067 232.814 62.6582 233.367C64.8735 234.54 66.3456 235.039 68.5609 235.673C69.332 235.888 69.8788 236.697 69.8368 237.587C69.8228 237.857 69.8228 238.113 69.8228 238.302C63.219 238.086 52.0025 238.464 51.7221 238.302C50.979 237.857 51.4417 235.7 51.9465 233.286C52.7597 233.394 53.5588 233.394 54.7366 233.232C56.7696 232.949 57.9613 232.167 58.9147 231.56Z" fill="black"/>
<path d="M41.6526 231.601C42.62 232.167 44.2744 232.814 45.326 233.367C47.5412 234.54 49.0134 235.039 51.2287 235.673C51.9998 235.888 52.5466 236.697 52.5045 237.587C52.4905 237.857 52.4905 238.113 52.4905 238.302C45.9008 238.086 34.6703 238.464 34.3899 238.302C33.6468 237.857 33.9693 235.578 34.474 233.165C35.2872 233.273 36.2406 233.394 37.4043 233.232C39.4233 232.949 40.6992 232.208 41.6526 231.601Z" fill="black"/>
</g>
</g>
<defs>
<clipPath id="clip0_29424_1913">
<rect width="260" height="249" fill="white"/>
</clipPath>
<clipPath id="clip1_29424_1913">
<rect width="36.8657" height="6.7821" fill="white" transform="translate(33.9552 231.56)"/>
</clipPath>
</defs>
</svg>
