<svg width="260" height="153" viewBox="0 0 260 153" fill="none" xmlns="http://www.w3.org/2000/svg">
<path d="M201.939 37.1997L211.859 37.3127C212.569 37.3199 213.196 37.79 213.462 38.5079L224.296 67.8218C224.785 69.1373 223.874 70.6132 222.576 70.6132H201.09C200.095 70.6132 199.308 69.7204 199.337 68.6198L200.07 39.1967C200.095 38.0852 200.937 37.1888 201.939 37.1997Z" fill="#BDDFE0"/>
<path d="M161.405 111.884C154.539 111.884 148.774 119.937 148.526 129.875C148.279 139.813 153.657 147.334 160.523 147.334C167.389 147.334 173.139 139.813 173.387 129.875C173.635 119.937 168.271 111.884 161.405 111.884Z" fill="#323231"/>
<path d="M160.523 147.331H171.212L172.093 111.884H161.405L160.523 147.331Z" fill="#323231"/>
<path d="M172.093 111.884C165.228 111.884 159.463 119.937 159.215 129.875C158.967 139.813 164.346 147.334 171.212 147.334C178.077 147.334 183.828 139.813 184.076 129.875C184.323 119.937 178.959 111.884 172.093 111.884Z" fill="#414141"/>
<path d="M180.005 130.265C180.322 123.576 176.838 117.976 172.222 117.757C167.606 117.538 163.606 122.783 163.289 129.472C162.972 136.16 166.456 141.76 171.072 141.979C175.688 142.198 179.687 136.953 180.005 130.265Z" fill="#282828"/>
<path d="M238.301 123.807H171.762C169.91 123.807 168.358 125.323 168.311 127.175L168.19 131.978C168.143 133.829 169.623 135.345 171.474 135.345H238.013C239.864 135.345 241.417 133.829 241.464 131.978L241.584 127.175C241.632 125.323 240.152 123.807 238.301 123.807Z" fill="#353535"/>
<path d="M61.303 111.884C54.4373 111.884 48.6759 119.846 48.4317 129.671C48.1875 139.496 53.57 146.93 60.4356 146.93C67.3013 146.93 73.0518 139.496 73.296 129.671C73.5365 119.846 68.1686 111.884 61.303 111.884Z" fill="#323231"/>
<path d="M60.4321 146.93H71.1205L71.9915 111.884H61.3031L60.4321 146.93Z" fill="#323231"/>
<path d="M71.9914 111.884C65.1257 111.884 59.3643 119.846 59.1201 129.671C58.876 139.496 64.2584 146.93 71.1241 146.93C77.9897 146.93 83.7402 139.496 83.9844 129.671C84.2249 119.846 78.857 111.884 71.9914 111.884Z" fill="#414141"/>
<path d="M79.9 130.076C80.2205 123.462 76.7387 117.919 72.1233 117.696C67.5078 117.472 63.5065 122.652 63.186 129.266C62.8655 135.879 66.3473 141.422 70.9627 141.646C75.5782 141.869 79.5795 136.689 79.9 130.076Z" fill="#282828"/>
<path d="M203.754 133.457H101.567C99.7891 133.457 98.346 132.014 98.346 130.236V100.528C98.346 98.75 99.7891 97.3069 101.567 97.3069H203.754C205.532 97.3069 206.975 98.75 206.975 100.528V130.236C206.975 132.018 205.532 133.457 203.754 133.457Z" fill="#353535"/>
<path d="M137.157 123.807H70.6176C68.7663 123.807 67.2139 125.323 67.1665 127.175L67.0463 131.978C66.9989 133.829 68.4784 135.345 70.3297 135.345H136.869C138.72 135.345 140.273 133.829 140.32 131.978L140.44 127.175C140.484 125.323 139.008 123.807 137.157 123.807Z" fill="#353535"/>
<path d="M189.739 125.615H250.374C250.279 121.282 242.732 99.8287 242.025 95.5613C241.428 91.9499 194.87 105.197 192.836 102.606C192.104 101.673 191.626 100.707 191.36 99.7521C190.861 98.6844 190.314 97.6422 189.735 96.6181V125.615H189.739Z" fill="#2B2B2B"/>
<path d="M214.61 43.6791L215.08 43.5042L215.645 45.1915L215.197 45.3555C214.056 45.7782 213.444 47.0427 213.834 48.1724L215.977 54.4295C216.17 54.9943 216.578 55.4426 217.125 55.6831C217.671 55.9272 218.28 55.9345 218.845 55.7049L219.129 55.5883L219.694 57.2792L219.482 57.363C218.805 57.6364 218.09 57.7238 217.394 57.6218C217.041 57.5708 216.691 57.4687 216.356 57.3193C215.364 56.8784 214.625 56.0694 214.275 55.0417L212.132 48.7846C211.432 46.7402 212.54 44.4444 214.61 43.6791Z" fill="#565656"/>
<path d="M251.384 84.5924L238.188 75.6095C236.883 74.8078 235.499 73.3173 235.079 72.5047L215.864 23.0713C214.078 20.0831 210.86 17.8383 207.34 17.8383L188.427 17.7654L186.069 125.619H214.337L215.142 125.44C215.474 123.593 216.534 122.128 217.74 120.579C219.096 118.84 220.284 116.997 221.804 115.389C225.105 111.895 229.599 109.384 234.42 109.06C241.125 108.608 249.066 113.363 250.378 125.622L256.172 125.458L256.948 94.1767C257.047 90.1498 254.634 87.0595 251.384 84.5924ZM224.118 69.4181C224.11 69.5128 224.103 69.6076 224.078 69.6987C224.063 69.7497 224.045 69.7971 224.019 69.8408C223.888 70.0631 223.615 70.1505 223.363 70.2088C222.059 70.5004 220.75 70.3036 219.442 70.4202C217.886 70.5623 216.319 70.6061 214.763 70.6352C211.691 70.6935 208.623 70.6133 205.554 70.5332C204.672 70.5113 203.794 70.4858 202.912 70.4639C202.121 70.4421 200.54 70.1615 200.044 69.5055C199.753 69.1192 199.742 68.5908 199.745 68.1025C199.753 65.2928 199.76 62.4832 199.764 59.6735C199.767 57.5526 199.957 55.4317 200.033 53.3108C200.11 51.2081 199.829 49.1127 199.96 47.0173C200.095 44.8271 200.248 42.6369 200.416 40.4468C200.511 39.2223 200.74 37.7829 201.834 37.1962C202.377 36.9046 203.018 36.901 203.626 36.901C205.481 36.9083 207.336 36.9192 209.191 36.9265C210.033 36.9301 210.886 36.9374 211.695 37.1415C213.648 37.6335 214.227 39.4993 214.865 41.2594C215.292 42.4329 215.583 43.65 215.896 44.8599C217.208 49.8998 218.979 54.8122 221.177 59.5132C222.645 62.6617 224.351 65.9123 224.118 69.4181Z" fill="#1B1D21"/>
<path d="M132.742 129.951C133.201 120.265 128.155 112.155 121.47 111.838C114.786 111.521 108.994 119.116 108.535 128.802C108.075 138.488 113.121 146.598 119.806 146.915C126.49 147.232 132.282 139.637 132.742 129.951Z" fill="#323231"/>
<path d="M120.2 146.93H130.626L131.497 111.833H121.071L120.2 146.93Z" fill="#323231"/>
<path d="M143.166 129.953C143.626 120.267 138.58 112.158 131.895 111.841C125.21 111.523 119.419 119.118 118.959 128.805C118.5 138.491 123.546 146.6 130.231 146.917C136.915 147.234 142.707 139.639 143.166 129.953Z" fill="#414141"/>
<path d="M139.216 129.766C139.526 123.242 136.126 117.78 131.623 117.566C127.12 117.353 123.218 122.468 122.908 128.992C122.599 135.516 125.999 140.977 130.502 141.191C135.005 141.405 138.907 136.289 139.216 129.766Z" fill="#323231"/>
<path d="M137.586 129.688C137.833 124.469 135.114 120.1 131.511 119.929C127.908 119.758 124.787 123.85 124.539 129.069C124.292 134.288 127.011 138.658 130.614 138.829C134.217 139 137.338 134.907 137.586 129.688Z" fill="#C8CAC4"/>
<path d="M137.586 129.688C137.833 124.469 135.114 120.1 131.511 119.929C127.908 119.758 124.787 123.85 124.539 129.069C124.292 134.288 127.011 138.658 130.614 138.829C134.217 139 137.338 134.907 137.586 129.688Z" fill="#C8CAC4"/>
<path d="M131.545 121.202C130.823 121.202 130.131 121.406 129.486 121.763C131.566 122.951 132.991 125.91 132.904 129.383C132.816 132.856 131.246 135.815 129.107 137.003C129.733 137.36 130.415 137.564 131.14 137.564C134.263 137.564 136.883 133.902 136.996 129.383C137.106 124.864 134.668 121.202 131.545 121.202Z" fill="#8C8C8C"/>
<path d="M130.966 129.569C131.075 127.341 129.901 125.474 128.345 125.399C126.789 125.323 125.44 127.067 125.332 129.294C125.224 131.522 126.397 133.389 127.953 133.464C129.509 133.54 130.858 131.796 130.966 129.569Z" fill="#414141"/>
<path d="M124.555 130.586C124.584 131.074 124.643 131.551 124.723 132.014C124.945 131.908 125.109 131.642 125.12 131.325C125.131 130.917 124.879 130.589 124.555 130.586Z" fill="#414141"/>
<path d="M124.785 127.098C124.694 127.565 124.621 128.046 124.577 128.538C124.584 128.538 124.592 128.545 124.599 128.545C124.923 128.545 125.197 128.213 125.204 127.801C125.215 127.459 125.033 127.182 124.785 127.098Z" fill="#414141"/>
<path d="M126.319 124.463C125.994 124.463 125.721 124.795 125.714 125.207C125.703 125.615 125.958 125.95 126.282 125.95C126.607 125.95 126.88 125.619 126.887 125.207C126.898 124.795 126.643 124.463 126.319 124.463Z" fill="#414141"/>
<path d="M128.257 123.352C127.933 123.352 127.66 123.683 127.653 124.095C127.642 124.503 127.897 124.839 128.221 124.839C128.545 124.839 128.819 124.507 128.826 124.095C128.837 123.683 128.582 123.352 128.257 123.352Z" fill="#414141"/>
<path d="M130.429 124.649C130.105 124.649 129.832 124.981 129.825 125.393C129.814 125.801 130.069 126.136 130.393 126.136C130.717 126.136 130.991 125.804 130.998 125.393C131.009 124.981 130.754 124.649 130.429 124.649Z" fill="#414141"/>
<path d="M131.545 127.058C131.22 127.058 130.947 127.39 130.94 127.801C130.929 128.21 131.184 128.545 131.508 128.545C131.832 128.545 132.106 128.213 132.113 127.801C132.124 127.393 131.869 127.058 131.545 127.058Z" fill="#414141"/>
<path d="M131.457 130.582C131.133 130.582 130.86 130.914 130.852 131.325C130.841 131.734 131.096 132.069 131.421 132.069C131.745 132.069 132.018 131.737 132.026 131.325C132.037 130.917 131.782 130.582 131.457 130.582Z" fill="#414141"/>
<path d="M130.072 133.18C129.748 133.18 129.475 133.512 129.468 133.924C129.457 134.332 129.712 134.667 130.036 134.667C130.36 134.667 130.634 134.335 130.641 133.924C130.652 133.512 130.397 133.18 130.072 133.18Z" fill="#414141"/>
<path d="M127.839 134.292C127.514 134.292 127.241 134.623 127.234 135.035C127.223 135.443 127.478 135.779 127.802 135.779C128.126 135.779 128.4 135.447 128.407 135.035C128.418 134.623 128.163 134.292 127.839 134.292Z" fill="#414141"/>
<path d="M125.809 133.18C125.492 133.18 125.229 133.501 125.207 133.894C125.284 134.113 125.371 134.321 125.459 134.529C125.55 134.605 125.652 134.663 125.772 134.663C126.097 134.663 126.37 134.332 126.377 133.92C126.388 133.512 126.133 133.18 125.809 133.18Z" fill="#414141"/>
<path opacity="0.25" d="M131.297 119.926C127.689 119.926 124.657 124.161 124.529 129.383C124.471 131.726 125.01 133.862 125.943 135.516C128.83 132.368 133.385 129.241 137.561 129.984C137.576 129.784 137.59 129.587 137.597 129.383C137.725 124.161 134.904 119.926 131.297 119.926Z" fill="black"/>
<path d="M238.869 130.182C239.343 120.386 234.188 112.178 227.355 111.847C220.523 111.517 214.6 119.19 214.126 128.986C213.652 138.781 218.807 146.99 225.64 147.321C232.473 147.651 238.396 139.978 238.869 130.182Z" fill="#323231"/>
<path d="M226.071 147.331H236.727L237.609 111.833H226.953L226.071 147.331Z" fill="#323231"/>
<path d="M249.525 130.182C249.998 120.386 244.843 112.178 238.011 111.847C231.178 111.517 225.255 119.19 224.781 128.986C224.308 138.781 229.463 146.99 236.295 147.321C243.128 147.651 249.051 139.978 249.525 130.182Z" fill="#414141"/>
<path d="M245.484 129.987C245.803 123.389 242.332 117.861 237.73 117.638C233.129 117.416 229.14 122.584 228.821 129.181C228.502 135.779 231.974 141.307 236.575 141.53C241.176 141.752 245.165 136.584 245.484 129.987Z" fill="#323231"/>
<path d="M237.405 120.021C233.717 120.021 230.619 124.303 230.488 129.583C230.357 134.864 233.239 139.146 236.927 139.146C240.615 139.146 243.713 134.864 243.844 129.583C243.975 124.303 241.093 120.021 237.405 120.021Z" fill="#C8CAC4"/>
<path d="M243.151 129.874C243.38 125.124 240.881 121.143 237.568 120.983C234.255 120.823 231.384 124.544 231.154 129.294C230.924 134.044 233.424 138.024 236.736 138.185C240.049 138.345 242.921 134.624 243.151 129.874Z" fill="#C8CAC4"/>
<path d="M237.383 120.976C237.11 120.976 236.843 121.012 236.581 121.06C239.507 121.621 241.687 125.218 241.581 129.583C241.472 133.949 239.114 137.546 236.158 138.107C236.421 138.158 236.683 138.191 236.956 138.191C240.276 138.191 243.06 134.339 243.181 129.583C243.294 124.828 240.699 120.976 237.383 120.976Z" fill="#AFAFAD"/>
<path d="M235.342 121.559C234.592 121.869 234.089 122.532 234.22 123.035C234.355 123.538 235.069 123.694 235.823 123.385C236.574 123.075 237.077 122.412 236.946 121.909C236.815 121.406 236.097 121.249 235.342 121.559Z" fill="#414141"/>
<path d="M232.088 128.213C231.52 128.213 231.039 128.953 231.017 129.868C230.995 130.782 231.436 131.522 232.008 131.522C232.58 131.522 233.058 130.782 233.079 129.868C233.101 128.953 232.66 128.213 232.088 128.213Z" fill="#414141"/>
<path d="M235.648 135.888C234.894 135.6 234.15 135.837 233.983 136.42C233.815 137.003 234.289 137.706 235.043 137.994C235.798 138.282 236.541 138.045 236.709 137.462C236.873 136.883 236.399 136.176 235.648 135.888Z" fill="#414141"/>
<path d="M240.885 133.945C240.448 134.678 240.251 135.407 240.44 135.578C240.633 135.749 241.14 135.294 241.577 134.561C242.015 133.829 242.211 133.1 242.022 132.929C241.832 132.761 241.322 133.213 240.885 133.945Z" fill="#414141"/>
<path d="M240.951 123.6C240.768 123.731 240.892 124.409 241.22 125.112C241.552 125.819 241.964 126.285 242.146 126.154C242.328 126.023 242.204 125.345 241.876 124.642C241.545 123.935 241.133 123.468 240.951 123.6Z" fill="#414141"/>
<path d="M237.733 126.023C236.326 126.023 235.149 127.634 235.098 129.62C235.047 131.606 236.148 133.217 237.554 133.217C238.961 133.217 240.138 131.606 240.189 129.62C240.237 127.634 239.136 126.023 237.733 126.023Z" fill="#414141"/>
<path d="M234.398 130.655C234.107 130.655 233.863 130.95 233.852 131.318C233.845 131.682 234.074 131.981 234.366 131.981C234.657 131.981 234.901 131.686 234.912 131.318C234.923 130.95 234.694 130.655 234.398 130.655Z" fill="#414141"/>
<path d="M234.479 127.51C234.187 127.51 233.943 127.805 233.932 128.173C233.925 128.538 234.154 128.836 234.446 128.836C234.737 128.836 234.982 128.541 234.993 128.173C235 127.809 234.77 127.51 234.479 127.51Z" fill="#414141"/>
<path d="M235.991 125.196C235.7 125.196 235.455 125.491 235.444 125.859C235.437 126.224 235.667 126.522 235.958 126.522C236.25 126.522 236.494 126.227 236.505 125.859C236.516 125.491 236.286 125.196 235.991 125.196Z" fill="#414141"/>
<path d="M237.74 124.201C237.449 124.201 237.205 124.496 237.194 124.864C237.186 125.229 237.416 125.527 237.707 125.527C237.999 125.527 238.243 125.232 238.254 124.864C238.261 124.5 238.032 124.201 237.74 124.201Z" fill="#414141"/>
<path d="M239.697 125.36C239.406 125.36 239.161 125.655 239.151 126.023C239.143 126.387 239.373 126.686 239.664 126.686C239.956 126.686 240.2 126.391 240.211 126.023C240.222 125.655 239.992 125.36 239.697 125.36Z" fill="#414141"/>
<path d="M240.703 127.51C240.412 127.51 240.167 127.805 240.157 128.173C240.149 128.538 240.379 128.836 240.67 128.836C240.962 128.836 241.206 128.541 241.217 128.173C241.228 127.809 240.998 127.51 240.703 127.51Z" fill="#414141"/>
<path d="M240.626 130.655C240.335 130.655 240.091 130.95 240.08 131.318C240.073 131.682 240.302 131.981 240.594 131.981C240.885 131.981 241.129 131.686 241.14 131.318C241.148 130.95 240.918 130.655 240.626 130.655Z" fill="#414141"/>
<path d="M239.377 132.969C239.085 132.969 238.841 133.264 238.83 133.632C238.823 133.997 239.052 134.295 239.344 134.295C239.635 134.295 239.879 134 239.89 133.632C239.898 133.268 239.668 132.969 239.377 132.969Z" fill="#414141"/>
<path d="M237.365 133.964C237.073 133.964 236.829 134.259 236.818 134.627C236.811 134.991 237.041 135.29 237.332 135.29C237.624 135.29 237.868 134.995 237.879 134.627C237.886 134.259 237.656 133.964 237.365 133.964Z" fill="#414141"/>
<path d="M235.536 132.969C235.244 132.969 235 133.264 234.989 133.632C234.982 133.997 235.211 134.295 235.503 134.295C235.794 134.295 236.038 134 236.049 133.632C236.057 133.268 235.827 132.969 235.536 132.969Z" fill="#414141"/>
<path d="M235.674 106.385C231.676 106.261 226.942 107.511 222.722 110.801C218.936 113.753 215.565 118.447 213.499 125.619L216.472 126.187C218.094 126.497 219.752 125.673 220.499 124.176C222.729 119.701 228.214 110.933 236.975 110.933C248.742 110.933 250.371 125.619 250.371 125.619C250.371 125.619 249.354 106.811 235.674 106.385Z" fill="#2E2C29"/>
<path d="M257.404 116.537L252.841 116.519C252.288 116.515 251.828 116.964 251.814 117.517L251.573 127.218C251.559 127.772 252 128.22 252.557 128.217L256.511 128.184C258.29 128.184 259.765 126.745 259.809 124.966L259.955 119.15C259.988 117.707 258.847 116.537 257.404 116.537Z" fill="#474747"/>
<path d="M257.404 116.537L252.841 116.519C252.288 116.515 251.828 116.964 251.814 117.517L251.573 127.218C251.559 127.772 252 128.22 252.557 128.217L256.511 128.184C258.29 128.184 259.765 126.745 259.809 124.966L259.955 119.15C259.988 117.707 258.847 116.537 257.404 116.537Z" fill="#474747"/>
<path d="M254.015 116.523L252.841 116.519C252.288 116.515 251.828 116.964 251.814 117.517L251.573 127.218C251.559 127.772 252 128.22 252.557 128.217L253.669 128.209C254.237 128.206 254.707 127.743 254.722 127.171L254.962 117.492C254.973 116.96 254.551 116.526 254.015 116.523Z" fill="#3D3D3D"/>
<path d="M206.99 123.742H196.032C195.212 123.742 194.443 123.414 193.867 122.823C193.262 122.204 192.927 121.333 192.949 120.44L195.048 35.8769C195.092 34.0839 196.528 32.6226 198.244 32.6226H213.881C215.12 32.6226 216.232 33.3843 216.713 34.5613L228.822 64.9538C228.997 65.3765 229.081 65.8357 229.067 66.3058L228.709 99.2748C228.666 101.082 227.846 103.083 226.155 103.229C215.175 104.176 210.547 119.584 210.055 121.337C209.661 122.751 208.397 123.742 206.99 123.742ZM198.244 34.5868C197.584 34.5868 197.031 35.1845 197.012 35.9206L194.913 120.484C194.902 120.856 195.034 121.198 195.274 121.446C195.478 121.657 195.748 121.77 196.032 121.77H206.99C207.522 121.77 208.007 121.373 208.164 120.801C208.692 118.913 213.688 102.325 225.987 101.264C226.261 101.243 226.72 100.302 226.745 99.2347L227.102 66.2657C227.106 66.058 227.073 65.8612 227 65.6863L214.891 35.2938C214.712 34.8601 214.322 34.5832 213.881 34.5832H198.244V34.5868Z" fill="#323232"/>
<path d="M223.892 66.7249H199.385L199.337 68.6162C199.308 69.7167 200.095 70.6096 201.09 70.6096H222.576C223.877 70.6096 224.785 69.1337 224.296 67.8181L223.892 66.7249Z" fill="#6D6D6D"/>
<path d="M199.742 79.7236H200.391C201.068 79.7236 201.611 80.2666 201.597 80.9335L201.382 89.6322C201.364 90.2954 200.795 90.842 200.117 90.842H199.469C198.791 90.842 198.248 90.2991 198.262 89.6322L198.477 80.9335C198.492 80.2666 199.064 79.7236 199.742 79.7236Z" fill="#3D3D3D"/>
<path d="M222.576 71.5935H201.09C200.376 71.5935 199.702 71.3056 199.192 70.7845C198.638 70.2196 198.335 69.4179 198.353 68.5943L199.086 39.1711C199.126 37.5349 200.394 36.2194 201.921 36.2194C201.932 36.2194 201.939 36.2194 201.95 36.2194L211.87 36.3323C212.988 36.3469 213.976 37.0685 214.384 38.1726L225.218 67.4865C225.575 68.4522 225.437 69.5309 224.847 70.3763C224.307 71.1489 223.48 71.5935 222.576 71.5935ZM201.921 38.1836C201.462 38.1836 201.065 38.6573 201.054 39.2185L200.321 68.6417C200.314 68.9405 200.416 69.2211 200.602 69.4106C200.7 69.509 200.864 69.6292 201.094 69.6292H222.58C222.923 69.6292 223.141 69.3887 223.24 69.2466C223.458 68.9332 223.513 68.5178 223.378 68.1606L212.544 38.8468C212.42 38.5079 212.154 38.2965 211.851 38.2929L201.932 38.1799C201.925 38.1836 201.921 38.1836 201.921 38.1836Z" fill="#3A3A3A"/>
<path d="M252.342 99.6829L253.213 110.994C253.242 111.384 253.567 111.683 253.957 111.683H257.185C257.608 111.683 257.961 111.341 257.969 110.918L258.249 99.61C258.26 99.1873 257.925 98.8448 257.502 98.8448L253.126 98.8411C252.674 98.8411 252.309 99.2311 252.342 99.6829Z" fill="#3D3D3D"/>
<path d="M254.693 101.243L255.297 109.227C255.323 109.453 255.531 109.653 255.793 109.653H257.885C258.169 109.653 258.402 109.453 258.41 109.202L258.61 101.192C258.617 100.944 258.391 100.74 258.107 100.74H255.214C254.908 100.74 254.663 100.977 254.693 101.243Z" fill="#EA5615"/>
<path d="M237.171 66.437H231.505C230.4 66.437 229.471 67.5448 229.438 68.9005L229.435 69.0353C229.402 70.391 230.277 71.4988 231.377 71.4988H237.044C238.148 71.4988 239.077 70.391 239.11 69.0353L239.114 68.9005C239.15 67.5448 238.276 66.437 237.171 66.437Z" fill="#303030"/>
<path d="M246.373 60.9016H237.273C236.373 60.9016 235.612 61.9329 235.582 63.1901L235.433 69.2139C235.4 70.4748 236.111 71.5025 237.011 71.5025H246.111C247.011 71.5025 247.772 70.4712 247.801 69.2139L247.951 63.1901C247.984 61.9329 247.273 60.9016 246.373 60.9016Z" fill="#303030"/>
<path d="M243.862 60.9016H234.762C233.862 60.9016 233.101 61.9329 233.072 63.1901L232.922 69.2139C232.889 70.4748 233.6 71.5025 234.5 71.5025H243.6C244.5 71.5025 245.261 70.4712 245.29 69.2139L245.44 63.1901C245.473 61.9329 244.762 60.9016 243.862 60.9016Z" fill="#3D3D3D"/>
<path d="M244.296 69.684L244.467 62.7163C244.478 62.2717 244.128 61.9146 243.683 61.9146H234.89C234.445 61.9146 234.077 62.2754 234.066 62.7163L233.895 69.684C233.884 70.1286 234.234 70.4857 234.679 70.4857H243.472C243.917 70.4894 244.285 70.1286 244.296 69.684Z" fill="#BDDFE0"/>
<path opacity="0.21" d="M244.423 64.4473L244.467 62.7163C244.478 62.2717 244.128 61.9146 243.683 61.9146H239.781L233.924 68.5106L233.895 69.684C233.884 70.1286 234.234 70.4857 234.679 70.4857H238.545L244.423 64.4473Z" fill="white"/>
<path opacity="0.4" d="M220.372 57.2026L202.705 37.2106L201.936 37.2033C200.934 37.1924 200.092 38.0888 200.066 39.1967L199.815 49.3457L217.387 70.6132H222.573C223.874 70.6132 224.781 69.1373 224.293 67.8217L220.372 57.2026Z" fill="white"/>
<path d="M237.485 104.085H242.466C242.933 104.085 243.315 103.702 243.315 103.236V99.9526C243.315 99.4862 242.933 99.1035 242.466 99.1035H237.485C237.018 99.1035 236.636 99.4862 236.636 99.9526V103.236C236.636 103.702 237.018 104.085 237.485 104.085Z" fill="#3D3D3D"/>
<path d="M238.272 104.085H243.253C243.72 104.085 244.102 103.702 244.102 103.236V99.9525C244.102 99.4861 243.72 99.1035 243.253 99.1035H238.272C237.805 99.1035 237.423 99.4861 237.423 99.9525V103.236C237.423 103.702 237.805 104.085 238.272 104.085Z" fill="#474747"/>
<path d="M239.234 102.966H242.288C242.608 102.966 242.871 102.704 242.871 102.383V100.802C242.871 100.481 242.608 100.219 242.288 100.219H239.234C238.913 100.219 238.651 100.481 238.651 100.802V102.383C238.651 102.704 238.913 102.966 239.234 102.966Z" fill="#EA5615"/>
<path d="M163.916 127.029H220.597C221.108 127.029 221.527 126.61 221.527 126.1V124.948C221.527 124.438 221.108 124.019 220.597 124.019H163.916C163.406 124.019 162.987 124.438 162.987 124.948V126.1C162.99 126.61 163.406 127.029 163.916 127.029Z" fill="#3F3F3F"/>
<path d="M191.659 0.44812H97.7994C95.4708 0.44812 98.6959 2.28115 98.6303 4.60614L96.3016 122.168C96.2324 124.649 94.5451 126.515 97.0268 126.515C99.6834 126.515 102.376 125.706 105.033 125.848C107.821 125.998 110.82 124.897 112.008 122.087C112.46 121.02 112.555 119.828 113.021 118.768C113.546 117.572 114.497 116.628 115.43 115.717C117.649 113.542 119.92 111.326 122.707 109.945C125.473 108.571 128.596 108.101 131.672 107.857C134.591 107.627 137.667 107.616 140.261 108.968C140.779 109.238 141.282 109.57 141.61 110.051C141.876 110.441 142.011 110.9 142.167 111.341C142.958 113.56 144.39 115.48 145.804 117.361C147.32 119.383 148.865 121.431 150.888 122.947C154.47 125.63 158.362 124.649 162.495 124.904C171.171 125.44 179.848 125.979 188.525 126.515C190.854 126.515 192.738 124.682 192.803 122.357L196.079 4.99971C196.156 2.52166 194.141 0.44812 191.659 0.44812Z" fill="url(#paint0_linear_29424_1712)"/>
<path d="M94.4431 126.519H17.0333C14.7776 126.519 13.36 124.657 13.4219 122.401L16.8001 8.45439C16.9349 3.99391 20.5864 0.44812 25.0505 0.44812H108.608C108.608 0.44812 101.6 2.67472 101.6 8.49448L98.2986 122.769C98.2403 124.857 96.5312 126.519 94.4431 126.519Z" fill="#1B1D21"/>
<path d="M21.6652 8.30139L18.8191 121.533C18.7644 123.512 20.0071 125.149 21.9895 125.149H89.9244C91.7574 125.149 93.2552 123.691 93.3062 121.858L96.4949 8.30139H21.6652Z" fill="#B2B2B2"/>
<path d="M93.2041 123.352L95.9118 41.2776H23.6111L21.5959 121.537C21.5412 123.516 22.7839 125.152 24.7664 125.152H92.7012C94.5306 125.148 95.4234 125.181 93.2041 123.352Z" fill="#5B5B5B"/>
<path opacity="0.45" d="M93.2041 123.352L95.9117 41.2776L23.5601 43.537L92.7012 125.152C94.5306 125.148 95.4234 125.181 93.2041 123.352Z" fill="#424242"/>
<path d="M96.0867 43.5735L96.9977 8.30139H23.2613L22.4122 43.5735H96.0867Z" fill="#C1C1C1"/>
<path d="M21.687 8.30139L23.1265 10.0943L96.9977 10.313V8.30139H21.687Z" fill="#B2B2B2"/>
<path d="M96.6588 18.7165L22.4122 18.6691V16.7012L96.7645 16.7523L96.6588 18.7165Z" fill="#B2B2B2"/>
<path d="M96.4912 27.1928L22.4122 27.1491V25.1849H96.5604L96.4912 27.1928Z" fill="#B2B2B2"/>
<path d="M96.4146 35.6327H22.4122V33.6648H96.4911L96.4146 35.6327Z" fill="#B2B2B2"/>
<path d="M63.4894 40.556H51.1393C50.764 40.556 50.4688 40.2316 50.5016 39.8563L50.5781 39.0363C50.6073 38.7084 50.8842 38.4569 51.2158 38.4569H63.566C63.9413 38.4569 64.2365 38.7812 64.2037 39.1566L64.1272 39.9765C64.0944 40.3045 63.8174 40.556 63.4894 40.556Z" fill="#B2B2B2"/>
<path d="M90.8426 123.49L85.3471 111.567C83.5505 107.671 79.6549 105.178 75.3657 105.178H60.942C57.0865 105.178 53.5079 107.19 51.5036 110.484L44.0184 122.794L80.6753 124.241C80.4712 124.033 91.207 123.789 90.8426 123.49Z" fill="#7A7A7A"/>
<path d="M60.8111 110.488L53.3259 122.794L83.8022 123.997C86.8743 123.848 91.0724 123.68 90.8428 123.49L85.3474 111.57C83.5508 107.675 79.6552 105.182 75.366 105.182H70.2495C66.394 105.182 62.8154 107.19 60.8111 110.488Z" fill="#707070"/>
<path d="M15.1713 117.452L12.5657 117.456C11.8587 117.456 11.2902 116.909 11.3157 116.246L12.0737 96.0934C12.0956 95.4666 12.6458 94.9673 13.32 94.9673L15.9256 94.9637C16.6326 94.9637 17.2011 95.5103 17.1756 96.1736L16.4176 116.326C16.3921 116.953 15.8418 117.448 15.1713 117.452Z" fill="#EFEFEF"/>
<path d="M102.027 117.452L96.6697 117.456C95.9627 117.456 95.3942 116.909 95.4197 116.246L96.1777 96.0934C96.1996 95.4666 96.7498 94.9673 97.424 94.9673L102.781 94.9637C103.488 94.9637 104.056 95.5103 104.031 96.1736L103.273 116.326C103.247 116.953 102.697 117.448 102.027 117.452Z" fill="white"/>
<path d="M102.781 94.9637L99.2317 94.9673L98.4445 117.456L102.023 117.452C102.694 117.452 103.244 116.953 103.269 116.326L104.027 96.1736C104.053 95.5103 103.488 94.9601 102.781 94.9637Z" fill="#F4F4F4"/>
<path d="M103.925 98.9833L104.031 96.17C104.056 95.5067 103.488 94.9601 102.781 94.9601L97.424 94.9637C96.7535 94.9637 96.2032 95.463 96.1777 96.0898L96.0684 98.9796H103.925V98.9833Z" fill="#EA5615"/>
<path d="M95.5328 113.141L95.4162 116.249C95.3907 116.913 95.9592 117.459 96.6662 117.459L102.023 117.456C102.694 117.456 103.244 116.956 103.269 116.33L103.39 113.145H95.5328V113.141Z" fill="#EA5615"/>
<path d="M102.027 117.452L96.6697 117.456C95.9627 117.456 95.3942 116.909 95.4197 116.246L96.1777 96.0934C96.1996 95.4666 96.7498 94.9673 97.424 94.9673L102.781 94.9637C103.488 94.9637 104.056 95.5103 104.031 96.1736L103.273 116.326C103.247 116.953 102.697 117.448 102.027 117.452Z" stroke="#515151" stroke-width="3.41961" stroke-miterlimit="10"/>
<path d="M17.0662 99.1472L17.1792 96.17C17.2047 95.5067 16.6362 94.9601 15.9292 94.9601L13.3236 94.9637C12.6531 94.9637 12.1028 95.463 12.0773 96.0898L11.9607 99.1436H17.0662V99.1472Z" fill="#EA5615"/>
<path d="M86.7977 73.7545L86.313 86.2395L94.4249 86.2686L94.8367 73.7837L86.7977 73.7545Z" fill="#AA8F74"/>
<path d="M91.5386 86.7059L76.2659 86.6512L76.7542 73.718L91.7719 73.7727L91.5386 86.7059Z" fill="#C1A685"/>
<path d="M11.436 113.042L11.3157 116.249C11.2902 116.913 11.8587 117.459 12.5657 117.459L15.1713 117.456C15.8418 117.456 16.3921 116.956 16.4176 116.329L16.5415 113.046H11.436V113.042Z" fill="#EA5615"/>
<path d="M16.9167 93.6482C16.6179 93.4733 16.2717 93.3967 15.9218 93.3967H14.2819C13.8446 93.3967 13.4912 93.7502 13.4912 94.1875V94.2349C13.4912 94.6357 13.8118 94.9637 14.2164 94.9637L15.9291 94.971C16.0567 94.971 16.1733 95.022 16.2607 95.1131C16.3482 95.2042 16.3956 95.3245 16.3919 95.4521L15.6339 116.982C15.623 117.241 15.4809 117.339 15.2149 117.354L13.3928 117.332C13.0539 117.332 12.7805 117.605 12.7769 117.944C12.7769 118.101 12.7769 118.272 12.7733 118.436C12.7733 118.844 13.1049 119.059 13.5094 119.03L15.1748 119.019C16.2753 119.015 17.1645 118.155 17.2046 117.055L17.9626 95.5067C17.9881 94.7524 17.6091 94.0527 16.9167 93.6482Z" fill="#515151"/>
<path d="M72.2863 85.5034V122.31H93.2294L94.4538 85.5034H72.2863Z" fill="#B2997C"/>
<path opacity="0.22" d="M80.9452 85.5034L93.9732 100.066L94.4542 85.5034H80.9452Z" fill="#424242"/>
<path d="M79.7496 122.649H52.225L52.6186 85.5179H79.7496V122.649Z" fill="#CEB897"/>
<path opacity="0.09" d="M52.6224 100.211L52.4402 100.459L52.2507 122.31L79.7716 122.415L79.7497 110.575L71.0985 100.288L52.6224 100.211Z" fill="#424242"/>
<path d="M70.9563 122.135L46.6896 122.036L47.4476 100.189L70.9308 100.288L70.9563 122.135Z" fill="#B2997C"/>
<path d="M54.86 122.856L30.9833 122.758L31.7413 100.127L55.2245 100.222L54.86 122.856Z" fill="#D8C1A3"/>
<path d="M194.913 123.253C194.913 122.321 194.159 121.566 193.226 121.563L152.608 121.493C151.653 121.49 150.87 120.943 150.56 120.065L147.517 111.381C146.194 107.609 142.736 105.164 138.709 105.156L124.479 105.127H124.457C120.754 105.127 117.274 107.208 115.368 110.561L109.639 120.641C109.104 121.584 108.127 122.193 107.15 122.193H107.147L12.5255 121.996C11.5926 121.993 10.8346 122.751 10.831 123.684L10.8237 125.808C10.82 126.741 11.578 127.499 12.5109 127.503L107.132 127.699H107.15C110.117 127.699 112.905 126.038 114.428 123.359L120.157 113.279C121.071 111.669 122.758 110.634 124.46 110.634H124.468L138.698 110.663C140.385 110.666 141.774 111.639 142.324 113.203L145.367 121.887C146.453 124.984 149.292 126.992 152.597 127L193.222 127.069C194.155 127.069 194.917 126.315 194.917 125.378V123.253H194.913Z" fill="#2E2C29"/>
<path d="M193.226 121.563L152.608 121.493C151.653 121.49 150.87 120.943 150.56 120.065L147.517 111.381C146.194 107.609 142.736 105.164 138.709 105.156L124.479 105.127H124.457C120.754 105.127 117.274 107.208 115.368 110.561L109.64 120.641C109.104 121.584 108.127 122.193 107.151 122.193H107.147L97.5262 122.175C96.4075 122.171 95.5037 123.079 95.5037 124.194V125.914C95.5037 126.887 96.2909 127.674 97.2639 127.678L107.14 127.699H107.158C110.124 127.699 112.912 126.038 114.435 123.359L120.164 113.279C121.079 111.669 122.766 110.634 124.468 110.634H124.475L138.706 110.663C140.393 110.666 141.781 111.639 142.331 113.203L145.374 121.887C146.46 124.984 149.299 126.992 152.604 127L193.23 127.069C194.163 127.069 194.924 126.315 194.924 125.378V123.253C194.913 122.321 194.155 121.563 193.226 121.563Z" fill="#2E2C29"/>
<path d="M183.995 29.5542H113.043C112.442 29.5542 111.95 29.0622 111.95 28.4609V28.2897C111.95 27.6884 112.442 27.1964 113.043 27.1964H183.995C184.597 27.1964 185.089 27.6884 185.089 28.2897V28.4609C185.089 29.0622 184.597 29.5542 183.995 29.5542Z" fill="#343434"/>
<path d="M182.421 82.5734H111.469C110.868 82.5734 110.376 82.0814 110.376 81.4801V81.3088C110.376 80.7075 110.868 80.2156 111.469 80.2156H182.421C183.022 80.2156 183.514 80.7075 183.514 81.3088V81.4801C183.514 82.0814 183.022 82.5734 182.421 82.5734Z" fill="#343434"/>
<path d="M24.2997 50.2531C24.2997 50.2531 27.4447 47.8188 27.1203 47.0317C26.7923 46.2445 19.9121 45.8983 16.0784 47.2722C12.2448 48.646 17.9479 52.4506 17.9479 52.4506L24.2997 50.2531Z" fill="#C6321E"/>
<path d="M12.4053 81.3162C12.4053 81.3162 1.75695 85.8787 0.871409 81.7316C-0.0141283 77.5809 3.70658 69.028 9.32227 65.6353L12.4053 81.3162Z" fill="#E79D84"/>
<path opacity="0.59" d="M9.32218 65.6316C6.97169 67.0528 4.95645 69.3742 3.46962 71.9032C5.02934 71.6737 6.81499 72.7523 6.43963 74.7566C6.40319 74.9425 6.36311 75.1211 6.31573 75.296C6.81863 75.7151 7.16847 76.3309 7.29602 77.0197C7.85358 80.0626 3.85955 83.663 1.08268 81.5822C0.98429 81.5093 0.893186 81.4328 0.805725 81.3526C0.823946 81.4802 0.845811 81.6077 0.87132 81.728C1.75686 85.8787 12.4052 81.3125 12.4052 81.3125L9.32218 65.6316Z" fill="#DB8F7B"/>
<path d="M54.8417 51.3354L58.3802 72.5373L42.9143 84.104L32.1676 79.0641C32.1676 79.0641 5.36098 61.3788 5.68896 61.1675C6.66925 60.5261 54.8417 51.3354 54.8417 51.3354Z" fill="#B2997C"/>
<path d="M20.2366 51.2079L54.8418 51.2772L39.5034 61.0873L5.68536 61.1639L20.2366 51.2079Z" fill="#CEB897"/>
<path d="M42.9108 84.104H9.09638L5.68542 61.1639H39.5035L42.9108 84.104Z" fill="#9F856C"/>
<path d="M35.3746 132.597L34.4781 138.034L36.497 141.616L29.8828 140.571L30.6554 132.08L35.3746 132.597Z" fill="#5F6468"/>
<path opacity="0.08" d="M32.1129 137.346C33.0312 137.517 33.8658 137.903 34.6638 138.359L34.478 138.031L35.3745 132.597L30.6589 132.08L30.1888 137.247C30.8265 137.16 31.5298 137.236 32.1129 137.346Z" fill="black"/>
<path d="M32.2916 146.279C36.497 146.367 40.5092 146.491 44.6636 145.882C44.6672 145.682 44.6709 145.441 44.6745 145.146C44.6964 143.513 44.1242 143.127 41.7264 143.353C39.9662 143.517 37.1748 140.536 35.6224 138.856C34.4854 138.962 35.8775 140.474 34.5109 140.751C33.8039 140.893 32.3025 140.201 31.949 139.811C31.1655 138.947 29.5439 139.144 29.3689 140.23C29.0519 142.187 29.0155 144.665 29.0883 145.838C29.1139 146.217 29.3689 146.52 29.6896 146.545C29.6896 146.545 30.2399 146.571 31.1947 146.629C31.5117 146.403 31.8834 146.272 32.2916 146.279Z" fill="#4B515B"/>
<path opacity="0.52" d="M34.2849 141.482C34.806 142.269 35.1121 143.187 35.1668 144.124C35.2105 144.871 35.0684 145.632 34.7732 146.325C38.093 146.383 41.3327 146.365 44.6599 145.877C44.6635 145.676 44.6671 145.436 44.6708 145.14C44.6927 143.508 44.1205 143.122 41.7226 143.347C39.9625 143.511 37.1711 140.53 35.6186 138.851C34.4816 138.956 35.8737 140.469 34.5072 140.745C34.2776 140.793 33.9605 140.749 33.6289 140.658C33.6326 140.662 33.6325 140.665 33.6362 140.669C33.8621 140.935 34.0917 141.19 34.2849 141.482Z" fill="#434851"/>
<path d="M20.4333 132.08L18.2686 138.362L19.6461 141.616L13.7316 140.571L15.7141 131.748L20.4333 132.08Z" fill="#5F6468"/>
<path opacity="0.08" d="M18.2833 138.326L20.4334 132.08L15.7142 131.748L14.4861 137.218C15.7761 137.105 17.1281 137.56 18.2833 138.326Z" fill="black"/>
<path d="M15.5793 139.805C15.8964 140.195 17.2374 140.888 17.8679 140.745C19.0887 140.469 17.846 138.956 18.8591 138.851C20.2439 140.53 22.7438 143.511 24.3144 143.347C26.4572 143.122 26.9674 143.511 26.9492 145.14C26.931 146.773 26.931 146.773 26.931 146.773C26.931 146.773 23.6512 147.392 20.1346 147.05C16.2972 146.678 13.5568 146.536 13.5568 146.536C13.2689 146.511 13.043 146.212 13.0211 145.829C12.9555 144.656 12.9883 142.181 13.2726 140.221C13.4293 139.138 14.876 138.945 15.5793 139.805Z" fill="#4B515B"/>
<path opacity="0.52" d="M24.3144 143.347C22.7437 143.511 20.2438 140.53 18.859 138.851C17.8423 138.956 19.0886 140.469 17.8678 140.745C17.6637 140.793 17.3795 140.749 17.0843 140.658C17.0879 140.662 17.0879 140.665 17.0916 140.669C17.292 140.935 17.4961 141.19 17.671 141.482C18.1375 142.269 18.4108 143.187 18.4581 144.124C18.5055 145.06 18.2978 146.022 17.8824 146.846C18.5784 146.904 19.3328 146.973 20.1381 147.05C23.6548 147.392 26.9345 146.773 26.9345 146.773C26.9345 146.773 26.9345 146.773 26.9527 145.14C26.971 143.511 26.4608 143.122 24.3144 143.347Z" fill="#434851"/>
<path d="M8.96879 54.1633C9.66119 53.8718 10.5431 54.3929 10.933 55.3258C11.3266 56.2587 11.0788 57.2536 10.3864 57.5451C9.69398 57.8367 8.81209 57.3155 8.42216 56.3826C8.02859 55.4497 8.27275 54.4549 8.96879 54.1633Z" fill="#DE8F78"/>
<path d="M20.0252 64.8189L14.9853 66.1782L14.6683 60.0122C14.5662 58.8096 15.4044 57.7601 16.5304 57.6836L17.0516 57.6472C18.1776 57.5706 19.1798 58.489 19.2782 59.6915L20.0252 64.8189Z" fill="#E79D84"/>
<path d="M24.1142 52.764C24.8685 52.7968 25.4443 53.6495 25.4006 54.6626C25.3568 55.6793 24.7082 56.4738 23.9502 56.441C23.1958 56.4082 22.62 55.5554 22.6638 54.5423C22.7111 53.5293 23.3598 52.7312 24.1142 52.764Z" fill="#E79D84"/>
<path d="M14.5517 46.2955L17.0552 46.0076C20.3532 45.6286 23.3633 48.0192 23.7387 51.3208L24.2561 55.8469C24.6351 59.1449 22.2445 62.155 18.9429 62.5303L16.4394 62.8182C13.1414 63.1972 10.1313 60.8066 9.75592 57.505L9.23845 52.9789C8.8631 49.6809 11.2537 46.6708 14.5517 46.2955Z" fill="#E79D84"/>
<path d="M9.19796 46.6123C9.14013 46.6484 9.14375 46.634 9.19073 46.5834C9.19435 46.6014 9.19796 46.6123 9.19796 46.6123Z" fill="#6D4D4B"/>
<path d="M23.1155 50.5446C22.485 50.5702 21.8546 50.5082 21.2278 50.4499C20.5682 50.388 19.9851 49.9397 19.5843 49.4405C19.5588 49.4077 19.5369 49.3712 19.5114 49.3348H10.1057C10.113 49.5789 10.1094 49.834 10.0875 50.0964C10.0474 50.6102 9.91989 51.1168 9.81785 51.6197C9.66115 52.374 9.22749 52.8587 8.62256 53.2341C8.79748 53.8208 8.96147 54.4913 9.0963 54.9614C9.71581 57.1516 10.1531 58.8169 11.4359 59.3563C13.5969 60.2637 16.8074 59.7426 18.8153 59.3526C22.1716 58.6967 22.0477 55.4679 22.711 53.6641C22.9989 52.8769 23.9063 52.6911 23.9099 52.6911C23.9208 52.6109 23.9609 52.4615 23.9755 52.2683C24.0265 51.6962 24.0338 51.0366 24.0411 50.3552C23.7386 50.4608 23.4325 50.5301 23.1155 50.5446Z" fill="#4F372D"/>
<path opacity="0.15" d="M23.1155 50.5446C22.485 50.5702 21.8546 50.5082 21.2278 50.4499C20.5682 50.388 19.9851 49.9397 19.5843 49.4405C19.5588 49.4077 19.5369 49.3712 19.5114 49.3348H10.1057C10.113 49.5789 10.1094 49.834 10.0875 50.0964C10.0474 50.6102 9.91989 51.1168 9.81785 51.6197C9.66115 52.374 9.22749 52.8587 8.62256 53.2341C8.79748 53.8208 8.96147 54.4913 9.0963 54.9614C9.71581 57.1516 10.1531 58.8169 11.4359 59.3563C13.5969 60.2637 16.8074 59.7426 18.8153 59.3526C22.1716 58.6967 22.0477 55.4679 22.711 53.6641C22.9989 52.8769 23.9063 52.6911 23.9099 52.6911C23.9208 52.6109 23.9354 52.4651 23.9464 52.272C23.9974 51.6962 24.0484 51.0293 24.0812 50.3406C23.7678 50.4572 23.4471 50.5301 23.1155 50.5446Z" fill="black"/>
<path d="M30.9834 66.4078C30.5351 64.921 27.2481 63.4269 19.8212 63.4123C18.7134 64.0537 15.7507 64.3124 14.8579 63.7148C12.2632 64.1302 10.3245 64.9975 9.32234 65.6352C8.18171 66.3604 6.08995 69.5309 6.82243 71.7137C7.27431 73.0584 12.2486 87.0958 12.2486 87.0958C12.2486 87.0958 31.3441 88.8815 30.5096 84.8583C29.5512 80.2448 30.6007 75.6422 31.0453 72.275C31.4498 69.1993 31.2202 67.195 30.9834 66.4078Z" fill="#FF3D00"/>
<path d="M31.0452 84.6251C31.0452 84.6251 24.1686 84.1659 22.4267 79.7929C21.2788 76.9176 21.1949 74.3084 21.1949 74.3084L18.7971 74.3631C18.8116 74.7894 18.7315 76.0358 17.456 76.3419C16.4575 76.5824 15.7578 75.624 15.5683 75.1356L13.2761 75.8535C13.2761 75.8535 14.3074 78.6195 14.4641 82.916C14.5151 84.3153 12.9882 85.937 11.6217 86.2431V93.0177C11.6217 93.0177 11.4795 98.9431 14.588 101.323C18.1593 104.06 34.6092 98.8083 34.5764 98.7026C31.2638 88.7612 31.0452 84.6251 31.0452 84.6251Z" fill="#596E9E"/>
<path d="M23.6256 63.5762C23.7022 63.3503 21.2205 63.0478 20.7467 63.4232C17.8423 66.3349 18.7388 74.1298 18.8991 76.2471C18.6222 77.5262 18.061 78.9037 17.6747 79.2827C17.4961 79.1333 17.0697 78.6704 16.483 77.3403C12.6785 68.74 14.056 64.8772 14.4714 63.7839C14.4022 63.5106 12.0845 64.101 11.9715 64.4581C10.7762 66.9143 11.3884 71.7428 14.2929 78.3097C14.9816 79.8694 16.1077 81.9174 17.9152 81.7206C17.9735 81.7133 18.0318 81.706 18.0865 81.6951C20.1163 81.3015 20.9945 77.9963 21.2788 76.5641L21.3116 76.4001L21.297 76.2325C20.9071 71.3055 21.4646 65.1979 23.6256 63.5762Z" fill="#596E9E"/>
<path d="M36.1071 136.985L28.9973 136.464C28.6474 136.438 28.396 136.121 28.4543 135.775C29.6568 128.494 31.2093 117.594 31.2494 115.721C30.7465 113.651 26.7597 107.627 23.2139 99.7083L33.0022 93.8521C33.691 96.5379 39.1281 111.191 39.5034 115.276C39.7585 118.053 37.7324 131.686 36.978 136.3C36.9051 136.722 36.5298 137.014 36.1071 136.985Z" fill="#596E9E"/>
<path d="M11.7603 95.2042C13.3418 104.635 17.4342 110.954 17.2739 115.145C17.2047 116.975 14.4679 129.179 12.8134 135.735C12.7077 136.15 12.992 136.562 13.4184 136.613L20.0799 137.415C20.4771 137.462 20.8489 137.211 20.9472 136.821C21.9348 132.947 25.2146 118.644 25.5025 115.848C25.6701 114.241 27.0039 112.266 22.2373 99.2893C21.749 99.2711 14.3185 95.339 11.7603 95.2042Z" fill="#596E9E"/>
<path opacity="0.06" d="M24.0156 101.465C27.3354 108.513 30.7792 113.811 31.2456 115.725C31.242 115.943 31.2165 116.289 31.1728 116.738C31.7923 115.83 32.6596 115.141 33.8184 114.934C35.9576 114.551 37.8671 115.994 38.6834 117.907C38.9239 118.469 39.1098 119.048 39.2628 119.638C39.4633 117.638 39.569 116.045 39.4997 115.28C39.2337 112.386 36.4277 104.191 34.5691 98.7026C31.2639 88.7612 31.0416 84.6287 31.0416 84.6287C31.0416 84.6287 30.9505 84.6214 30.7938 84.6069C31.2639 87.6498 31.6829 91.0389 29.9009 93.7428C28.4396 95.9622 25.9288 96.6801 23.3851 96.6873C22.1826 96.691 20.969 96.5525 19.7665 96.629C18.1958 96.7238 16.647 97.3251 15.0582 97.1246C13.411 96.9169 12.4198 96.0387 11.8112 94.8543C11.8221 95.011 11.8404 95.175 11.8586 95.3463H11.7966C11.8185 95.8601 11.9643 96.4213 12.11 97.0007C13.852 105.375 17.3649 111.126 17.2775 115.043C19.0267 113.789 21.4173 113.48 23.1519 115.018C24.4164 116.136 24.8756 117.59 24.9266 119.161C25.2255 117.652 25.4368 116.472 25.5024 115.852C25.6591 114.347 26.8398 112.518 23.0717 101.633C23.3888 101.578 23.7022 101.523 24.0156 101.465Z" fill="black"/>
<path d="M36.0632 70.6496C36.0632 70.6496 44.6999 77.7886 46.1904 77.9234C49.9257 78.2659 52.841 76.6734 52.841 76.6734L53.8906 75.8899C53.8906 75.8899 53.8906 77.6136 53.1362 78.7944C52.1122 80.3905 46.8464 84.738 43.2095 84.2133C39.5726 83.6885 32.5247 77.1909 32.5247 77.1909L36.0632 70.6496Z" fill="#E79D84"/>
<path opacity="0.59" d="M38.7709 72.8362C37.2257 71.6154 36.0632 70.6533 36.0632 70.6533L32.5247 77.191C32.5247 77.191 33.0932 77.7158 33.9933 78.481C36.2236 77.3841 38.093 75.1794 38.7709 72.8362Z" fill="#DB8F7B"/>
<path opacity="0.59" d="M52.841 76.6772C52.841 76.6772 49.9257 78.2697 46.1904 77.9271C46.143 77.9235 46.0847 77.9052 46.0227 77.887C46.5621 79.0167 46.6896 80.2885 46.1394 81.4255C45.221 83.3242 43.1147 83.6084 41.2416 83.5464C41.9558 83.8854 42.6264 84.1295 43.2094 84.2133C46.8463 84.7381 52.1158 80.3942 53.1362 78.7944C53.8905 77.6137 53.8905 75.89 53.8905 75.89L52.841 76.6772Z" fill="#DB8F7B"/>
<path d="M38.2608 71.5206C35.892 69.4543 30.4622 64.5747 27.2262 64.1484L23.2504 71.9797C24.7408 73.4483 29.0191 76.6807 33.0168 78.419C35.6041 77.6975 38.2608 73.3208 38.2608 71.5206Z" fill="#FF3D00"/>
<path d="M9.64295 76.5241C10.1131 76.1159 10.667 75.6932 11.21 75.2413L9.32226 65.6316C6.37047 67.4136 3.94345 70.6241 2.43475 73.8711C3.85963 75.6567 5.86029 77.4424 8.0468 78.4154C8.52419 77.989 9.16192 76.9431 9.64295 76.5241Z" fill="#FF3D00"/>
<path d="M15.0253 42.2905C5.94403 43.3218 8.59335 53.2705 8.59335 53.2705C8.59335 53.2705 9.12905 53.5875 10.8163 53.7661C10.7471 52.9352 10.8928 52.0606 11.2828 51.3828C12.2485 49.6992 14.2528 48.9667 15.9291 50.1583C16.811 50.7888 17.139 51.8638 17.3139 52.8769C17.3576 53.1211 17.3722 53.3689 17.3941 53.6167C22.1242 52.8623 24.2961 50.2531 24.2961 50.2531C24.2961 50.2531 24.8245 41.1754 15.0253 42.2905Z" fill="#FF3D00"/>
<path opacity="0.07" d="M20.7577 43.1506C20.9071 43.5843 20.9545 44.0872 20.8779 44.6703C20.4115 48.0885 16.1952 49.2364 13.3272 49.189C11.844 49.1635 9.9053 48.6752 8.49865 47.7314C7.86091 50.501 8.59704 53.2705 8.59704 53.2705C8.59704 53.2705 9.13273 53.5876 10.82 53.7661C10.7508 52.9353 10.8965 52.0607 11.2864 51.3828C12.2522 49.6992 14.2565 48.9668 15.9328 50.1584C16.8147 50.7888 17.1427 51.8639 17.3176 52.877C17.3613 53.1211 17.3759 53.3689 17.3977 53.6167C22.1279 52.8624 24.2998 50.2531 24.2998 50.2531C24.2998 50.2531 24.5804 45.2825 20.7577 43.1506Z" fill="black"/>
<path d="M10.2006 53.6858L10.3062 52.5306C11.9243 52.7639 14.6574 53.2085 17.591 52.3812L17.8206 53.5401C14.0525 54.5532 11.3303 53.8717 10.2006 53.6858Z" fill="#DDD7D0"/>
<path d="M20.7213 147.272C17.3249 147.272 14.231 147.239 12.9628 147.221C12.6275 147.218 12.3652 146.941 12.3688 146.609L12.3761 146.135C12.3797 145.862 12.602 145.647 12.8754 145.654C15.1056 145.702 24.278 145.88 26.8727 145.592C27.0986 145.567 27.2881 145.749 27.2808 145.975L27.2626 146.409C27.2553 146.569 27.1496 146.707 26.9929 146.751C25.0652 147.272 22.8422 147.272 20.7213 147.272Z" fill="#878E91"/>
<path d="M37.8271 147.272C34.0298 147.272 30.5679 147.239 29.1539 147.221C28.7786 147.218 28.4834 146.941 28.4907 146.609L28.498 146.135C28.5016 145.862 28.7494 145.647 29.0555 145.654C31.5481 145.702 41.8029 145.88 44.7036 145.592C44.9551 145.567 45.1701 145.749 45.1592 145.975L45.1373 146.409C45.13 146.569 45.0098 146.707 44.8348 146.751C42.6884 147.272 40.2031 147.272 37.8271 147.272Z" fill="#878E91"/>
<defs>
<linearGradient id="paint0_linear_29424_1712" x1="104.34" y1="6.95015" x2="185.399" y2="95.8112" gradientUnits="userSpaceOnUse">
<stop/>
<stop offset="0.848958" stop-color="#292929"/>
</linearGradient>
</defs>
</svg>
