<svg width="36" height="36" viewBox="0 0 36 36" fill="none" xmlns="http://www.w3.org/2000/svg">
<path fill-rule="evenodd" clip-rule="evenodd" d="M17.5921 32.8705C17.7583 32.9573 17.944 33.0014 18.1297 32.9999C18.3155 32.9985 18.4997 32.9529 18.6673 32.8646L24.0192 30.0037C25.5368 29.1947 26.7253 28.2901 27.6525 27.2369C29.6685 24.9423 30.7693 22.0137 30.7497 18.994L30.6863 9.03297C30.6802 7.88567 29.9267 6.86192 28.8122 6.48978L18.8561 3.14935C18.2566 2.94636 17.5997 2.95077 17.0108 3.15964L7.09237 6.61922C5.98395 7.00606 5.244 8.03717 5.25004 9.18595L5.31346 19.1396C5.33309 22.1638 6.47171 25.0791 8.52093 27.3502C9.4572 28.3886 10.6562 29.28 12.1905 30.0758L17.5921 32.8705ZM16.1754 21.1634C16.3989 21.3781 16.6888 21.4841 16.9787 21.4811C17.2687 21.4796 17.5571 21.3708 17.7776 21.1531L23.6262 15.3871C24.0657 14.9532 24.0611 14.256 23.6172 13.828C23.1717 13.3999 22.4544 13.4029 22.015 13.8368L16.9621 18.8173L14.8933 16.8286C14.4478 16.4006 13.732 16.405 13.2911 16.8389C12.8516 17.2728 12.8562 17.9701 13.3016 18.3981L16.1754 21.1634Z" fill="#F3F2F2"/>
</svg>
